# xmcd
#
# Track frame offsets:
#	150
#	18902
#	36719
#	55143
#	72761
#	93799
#	112443
#	132318
#	151775
#	163861
#	181193
#	199893
#	216231
#	235043
#	256701
#
# Disc length: 3781 seconds
#
# Revision: 0
# Processed by: cddbd v1.5.1PL2 Copyright (c) Steve Scherf et al.
# Submitted via: dBpowerAMP V4.0
#
DISCID=cf0ec30f
DTITLE=Pancho Puelma - Grandes Exitos
DYEAR=2006
DGENRE=Blues
TTITLE0=No te Canses
TTITLE1=Aire Nuevo
TTITLE2=Te quiero, te quiero
TTITLE3=Encadenado a ti
TTITLE4=De oriente a occidente
TTITLE5=Tu y yo
TTITLE6=Cree en mi
TTITLE7=El pajaro
TTITLE8=Dame un día más
TTITLE9=Esperando Nacer
TTITLE10=Otro día mas en la ciudad
TTITLE11=Vamos a Navegar
TTITLE12=Superhombre
TTITLE13=x
TTITLE14=xx
EXTD=
EXTT0=
EXTT1=
EXTT2=
EXTT3=
EXTT4=
EXTT5=
EXTT6=
EXTT7=
EXTT8=
EXTT9=
EXTT10=
EXTT11=
EXTT12=
EXTT13=
EXTT14=
PLAYORDER=
